# xmcd
#
# Track frame offsets:
#	150
#	16612
#	35550
#
# Disc length: 722 seconds
#
# Revision: 0
# Processed by: cddbd v1.5.2PL0 Copyright (c) Steve Scherf et al.
# Submitted via: audiograbber 1.83.01
#
DISCID=1602d003
DTITLE=Governor/Son of Pain
DYEAR=2006
DGENRE=Rap
TTITLE0=Blood, Sweat and Tears - Radio Edit
TTITLE1=Destiny
TTITLE2=Out of My Hands
EXTD=
EXTT0=
EXTT1=
EXTT2=
PLAYORDER=
.
